<svg style="display: block;" width="118px" height="19px" viewBox="0 0 118 19" version="1.1" xmlns="http://www.w3.org/2000/svg" xmlns:xlink="http://www.w3.org/1999/xlink">
    <g id="Symbols" stroke="none" stroke-width="1" fill="none" fill-rule="evenodd">
        <g id="Footer" transform="translate(-904.000000, -42.000000)" fill="#FEFEFE">
            <g id="Group-17" transform="translate(904.500000, 42.000000)">
                <path class="cs-logo-animate-letters" d="M78.1361055,15.1549314 C78.1361055,15.1549314 79.5982174,16.7419155 81.8547852,16.7419155 C82.9310185,16.7419155 84.0080345,16.14885 84.0080345,15.0473253 C84.0080345,12.5469218 77.3408669,13.0578453 77.3408669,8.62135405 C77.3408669,6.14723599 79.4440225,4.75 82.0332442,4.75 C84.8807619,4.75 86.2137258,6.2564849 86.2137258,6.2564849 L85.2134159,8.21885808 C85.2134159,8.21885808 84.0596937,7.00890593 82.00898,7.00890593 C80.9311813,7.00890593 79.8807775,7.4927225 79.8807775,8.67556779 C79.8807775,11.1217576 86.5479452,10.5837272 86.5479452,15.0473253 C86.5479452,17.3062313 84.7015202,19 81.8547852,19 C78.6738308,19 76.9315068,17.0096985 76.9315068,17.0096985 L78.1361055,15.1549314 Z" id="Fill-1" style="animation: 4s ease 0s 1 normal forwards running cslogoanimateletters;"></path>
                <path class="cs-logo-animate-letters" d="M115.064417,16.0404139 C113.909199,16.0404139 113.323541,15.4694972 113.323541,13.9538306 L113.323541,6.83692337 L116.513996,6.83692337 L116.513996,4.95602647 L113.323541,4.95602647 L113.323541,0 L110.928784,0 L110.928784,4.95602647 L108.986301,4.95602647 L108.986301,6.83692337 L110.928784,6.83692337 L110.928784,13.8341727 C110.928784,16.8600314 111.948319,18.2083333 114.448096,18.2083333 C115.442334,18.2083333 116.283259,17.9924799 117,17.5529522 L116.165208,15.6876969 C115.86778,15.8284709 115.49906,16.0404139 115.064417,16.0404139" id="Fill-3" style="animation: 4s ease 0s 1 normal forwards running cslogoanimateletters;"></path>
                <path class="cs-logo-animate-letters" d="M106.942955,16.0404139 C105.722938,16.0404139 105.103619,15.4694972 105.103619,13.9538306 L105.103619,0 L102.575342,0 L102.575342,13.8341727 C102.575342,16.8600314 103.651257,18.2083333 106.291254,18.2083333 C107.342071,18.2083333 108.230166,17.9924799 108.986301,17.5529522 L108.104683,15.6876969 C107.791381,15.8284709 107.40117,16.0404139 106.942955,16.0404139" id="Fill-5" style="animation: 4s ease 0s 1 normal forwards running cslogoanimateletters;"></path>
                <path class="cs-logo-animate-letters" d="M97.586855,4.75 L97.586855,8.68310484 L97.586855,8.8482746 L97.586855,10.6540247 C97.586855,12.163581 97.2997018,13.326122 96.8274945,14.172617 C96.1997459,15.223986 95.2042818,15.9632795 93.9192717,15.9632795 C91.9251529,15.9632795 90.7350629,14.9103223 90.7350629,12.8155251 L90.7350629,4.75 L88.1506849,4.75 L88.1506849,12.9100213 C88.1506849,16.1610068 90.0873731,18.1795718 92.7291816,18.1795718 C92.7291816,18.1795718 95.3231313,18.5496156 97.0308946,16.6350757 C97.2885348,16.3460287 97.5158643,16.0403058 97.7184668,15.7290243 L97.6259397,17.8857602 L100.171233,17.8857602 L100.171233,4.75 L97.586855,4.75 Z" id="Fill-7" style="animation: 4s ease 0s 1 normal forwards running cslogoanimateletters;"></path>
                <path class="cs-logo-animate-letters" d="M70.0842922,4.77891388 C70.0842922,4.77891388 67.2741695,4.40805829 65.6179694,6.32268961 C65.3710873,6.61016225 65.0437169,7.09060686 64.8463659,7.4019032 C64.1219718,5.73821485 62.6793751,4.77891388 60.9125037,4.77891388 C60.9125037,4.77891388 58.3949248,4.40805829 56.7387247,6.32268961 C56.4879729,6.61254462 56.2666302,6.9182821 56.0708271,7.22878432 L56.1598285,5.07273951 L53.6917808,5.07273951 L53.6917808,18.2083333 L56.1985248,18.2083333 L56.1985248,14.2750405 L56.1985248,14.1098629 L56.1985248,12.3048206 C56.1985248,10.794398 56.4786858,9.63259561 56.9360756,8.78526602 C57.5443809,7.73464087 58.5102396,6.99610619 59.7578072,6.99610619 C61.6933943,6.99610619 62.8473169,8.04752546 62.8473169,10.1424228 L62.8473169,18.2083333 L62.8635693,18.2083333 L65.3556087,18.2083333 L65.3710873,18.2083333 L65.3710873,14.2750405 L65.3710873,14.1098629 L65.3710873,12.3048206 C65.3710873,10.794398 65.6504743,9.63259561 66.1078641,8.78526602 C66.7169433,7.73464087 67.6828021,6.99610619 68.9295957,6.99610619 C70.8644089,6.99610619 72.0191054,8.04752546 72.0191054,10.1424228 L72.0191054,18.2083333 L74.5273973,18.2083333 L74.5273973,10.0479221 C74.5273973,6.79678123 72.6475328,4.77891388 70.0842922,4.77891388" id="Fill-9" style="animation: 4s ease 0s 1 normal forwards running cslogoanimateletters;"></path>
                <path class="cs-logo-animate-letters" d="M46.0438052,4.77891388 C46.0438052,4.77891388 43.2351261,4.40805829 41.5773165,6.32268961 C41.3304252,6.61016225 41.0030426,7.09060686 40.8056844,7.4019032 C40.0812634,5.73821485 38.6386131,4.77891388 36.871676,4.77891388 C36.871676,4.77891388 34.3540036,4.40805829 32.6977419,6.32268961 C32.4469808,6.61254462 32.22563,6.9182821 32.0305936,7.22878432 L32.1188243,5.07273951 L29.6506849,5.07273951 L29.6506849,18.2083333 L32.157522,18.2083333 L32.157522,14.2750405 L32.157522,14.1098629 L32.157522,12.3048206 C32.157522,10.794398 32.4376934,9.63259561 32.8951002,8.78526602 C33.5034281,7.73464087 34.4693227,6.99610619 35.7177106,6.99610619 C37.6525956,6.99610619 38.8065611,8.04752546 38.8065611,10.1424228 L38.8065611,18.2083333 L38.8228141,18.2083333 L41.3149461,18.2083333 L41.3304252,18.2083333 L41.3304252,14.2750405 L41.3304252,14.1098629 L41.3304252,12.3048206 C41.3304252,10.794398 41.6098226,9.63259561 42.0672294,8.78526602 C42.6763313,7.73464087 43.6429998,6.99610619 44.8890658,6.99610619 C46.8239509,6.99610619 47.9786903,8.04752546 47.9786903,10.1424228 L47.9786903,18.2083333 L50.4863014,18.2083333 L50.4863014,10.0479221 C50.4863014,6.79678123 48.607141,4.77891388 46.0438052,4.77891388" id="Fill-11" style="animation: 4s ease 0s 1 normal forwards running cslogoanimateletters;"></path>
                <path class="cs-logo-animate-c1" d="M10.5218901,15.1057942 C9.6915697,16.1286394 8.46672802,16.7407034 7.09979518,16.7407034 C4.62867908,16.7407034 2.5751046,14.6982992 2.5751046,11.8482992 C2.5751046,9.02541078 4.62867908,7.00847506 7.09979518,7.00847506 C8.61278821,7.00847506 9.95273166,7.74952436 10.7735264,8.96132891 L13.6232877,8.96132891 C12.5365681,6.41037763 10.028937,4.75 7.09979518,4.75 C3.17284004,4.75 0,7.73391467 0,11.8482992 C0,15.9881522 3.17284004,19 7.09979518,19 C9.89240246,19 12.3031893,17.4768233 13.462939,15.1057942 L10.5218901,15.1057942 Z" id="Fill-13" style="animation: 4s ease 0s 1 normal forwards running cslogoanimatec1;"></path>
                <path class="cs-logo-animate-c2" d="M20.9485302,4.75 C18.0200115,4.75 15.5098527,6.41110342 14.4246575,8.96190764 L17.2801418,8.96190764 C18.1081291,7.75017295 19.451326,7.00916638 20.9485302,7.00916638 C23.4459874,7.00916638 25.4742782,9.0251643 25.4742782,11.8487115 C25.4742782,14.6977257 23.4459874,16.7432982 20.9485302,16.7432982 C19.5966008,16.7432982 18.3685124,16.1288049 17.5341743,15.1060187 L14.5850156,15.1060187 C15.7456266,17.4760896 18.1557602,19 20.9485302,19 C24.8757141,19 28.0479452,15.9891474 28.0479452,11.8487115 C28.0479452,7.73456416 24.8757141,4.75 20.9485302,4.75" id="Fill-15" style="animation: 4s ease 0s 1 normal forwards running cslogoanimatec2;"></path>
            </g>
        </g>
    </g>
</svg>